<svg width="460" height="110" viewBox="0 0 460 110" fill="none" xmlns="http://www.w3.org/2000/svg">
<path d="M0 25C0 11.1929 11.1929 0 25 0H435C448.807 0 460 11.1929 460 25V85C460 98.8071 448.807 110 435 110H25C11.1929 110 0 98.8071 0 85V25Z" fill="#FDF7F1"/>
<path d="M27.022 53.08C25.166 51.48 23.63 49.56 22.414 47.32C21.198 45.016 20.59 42.264 20.59 39.064C20.59 35.224 21.55 31.928 23.47 29.176C25.454 26.36 28.11 24.216 31.438 22.744C34.83 21.208 38.606 20.44 42.766 20.44C47.054 20.44 50.734 21.176 53.806 22.648C56.942 24.056 59.534 25.88 61.582 28.12C63.694 30.296 65.326 32.568 66.478 34.936L55.726 40.888C54.83 39.288 53.742 37.848 52.462 36.568C51.246 35.224 49.838 34.168 48.238 33.4C46.638 32.568 44.814 32.152 42.766 32.152C40.078 32.152 38.062 32.792 36.718 34.072C35.374 35.288 34.702 36.728 34.702 38.392C34.702 40.056 35.246 41.528 36.334 42.808C37.422 44.024 39.086 45.208 41.326 46.36L27.022 53.08Z" fill="#AE2127"/>
<path fill-rule="evenodd" clip-rule="evenodd" d="M26.8602 54.2609L26.369 53.8374C24.4177 52.1553 22.8065 50.1391 21.5351 47.7971L21.5295 47.7868C20.2222 45.3097 19.59 42.39 19.59 39.064C19.59 35.0499 20.5964 31.5471 22.6498 28.6038L22.6525 28.6C24.7461 25.6285 27.5472 23.3722 31.0294 21.8312C34.5644 20.2312 38.4821 19.44 42.766 19.44C47.1608 19.44 50.9921 20.1933 54.2268 21.7408C57.4608 23.1944 60.1625 25.0887 62.3099 27.4342C64.4799 29.6719 66.1743 32.0258 67.3772 34.4985L67.7922 35.3515L55.3397 42.2448L54.8535 41.3766C54.0017 39.8556 52.9691 38.4894 51.7549 37.2751L51.7372 37.2574L51.7204 37.2389C50.5895 35.989 49.2858 35.0122 47.8052 34.3015L47.7908 34.2946L47.7766 34.2872C46.3374 33.5388 44.6753 33.152 42.766 33.152C40.2203 33.152 38.4967 33.759 37.4076 34.7961L37.3984 34.805L37.3889 34.8135C36.2335 35.8589 35.702 37.0376 35.702 38.392C35.702 39.8121 36.1573 41.052 37.0877 42.1507C38.0628 43.2369 39.6057 44.3508 41.7833 45.4707L43.5914 46.4006L26.8602 54.2609ZM36.334 42.808C35.246 41.528 34.702 40.056 34.702 38.392C34.702 36.728 35.374 35.288 36.718 34.072C38.062 32.792 40.078 32.152 42.766 32.152C44.814 32.152 46.638 32.568 48.238 33.4C49.838 34.168 51.246 35.224 52.462 36.568C53.742 37.848 54.83 39.288 55.726 40.888L66.478 34.936C65.326 32.568 63.694 30.296 61.582 28.12C59.534 25.88 56.942 24.056 53.806 22.648C50.734 21.176 47.054 20.44 42.766 20.44C38.606 20.44 34.83 21.208 31.438 22.744C28.11 24.216 25.454 26.36 23.47 29.176C21.55 31.928 20.59 35.224 20.59 39.064C20.59 42.264 21.198 45.016 22.414 47.32C23.63 49.56 25.166 51.48 27.022 53.08L41.326 46.36C40.9447 46.1639 40.5801 45.9669 40.2322 45.769C38.5362 44.804 37.2368 43.817 36.334 42.808Z" fill="#AE2127"/>
<path fill-rule="evenodd" clip-rule="evenodd" d="M26.4793 64.9849L27.023 65.9487C28.3988 68.3876 29.8917 70.5003 31.4984 72.2935C33.1519 74.0681 34.9435 75.4297 36.8712 76.3936C38.7756 77.3457 40.8298 77.824 43.048 77.824C45.6255 77.824 47.6256 77.1678 49.1363 75.9368C50.6081 74.7375 51.36 73.1146 51.36 70.952C51.36 69.0145 50.8641 67.5681 49.9661 66.5117L49.9564 66.5003L49.9471 66.4887C49.0535 65.3716 47.6348 64.3346 45.6102 63.4144L45.5934 63.4067L45.5768 63.3984C43.5691 62.3946 41.0762 61.3207 38.0915 60.1774C36.4611 59.59 34.5824 58.8119 32.4582 57.8464L32.4414 57.8387L32.4248 57.8304C30.3054 56.7707 28.2899 55.4483 26.3784 53.8664L26.3707 53.86L26.3631 53.8534C24.4118 52.1712 22.8005 50.1551 21.5292 47.8131L21.5236 47.8028C20.2162 45.3257 19.584 42.406 19.584 39.08C19.584 35.0659 20.5904 31.5631 22.6439 28.6198L22.6465 28.616C24.7401 25.6445 27.5413 23.3882 31.0236 21.8472C34.5586 20.2472 38.4761 19.456 42.76 19.456C47.1549 19.456 50.9861 20.2093 54.2209 21.7568C57.4549 23.2104 60.1565 25.1048 62.304 27.4502C64.4739 29.6879 66.1683 32.0418 67.3713 34.5145L67.7862 35.3675L55.3337 42.2608L54.8475 41.3926C53.9958 39.8716 52.9632 38.5054 51.7489 37.2911L51.7312 37.2734L51.7145 37.2549C50.5836 36.005 49.2799 35.0282 47.7993 34.3175L47.7849 34.3106L47.7707 34.3032C46.3315 33.5548 44.6694 33.168 42.76 33.168C40.2143 33.168 38.4907 33.775 37.4017 34.8121L37.3924 34.821L37.3829 34.8295C36.2275 35.8749 35.696 37.0536 35.696 38.408C35.696 39.8281 36.1514 41.068 37.0818 42.1667C38.0553 43.2512 39.595 44.3633 41.7672 45.4815C43.9559 46.5438 46.7268 47.647 50.0896 48.7891L50.1009 48.7929C52.333 49.5808 54.4677 50.5658 56.5041 51.7477C58.6276 52.9429 60.5231 54.4048 62.1873 56.1328C63.9473 57.8291 65.2985 59.8598 66.242 62.2124C67.2639 64.5357 67.76 67.2006 67.76 70.184C67.76 73.5813 67.093 76.65 65.7344 79.3672C64.3896 82.0569 62.5374 84.3467 60.1847 86.2289L60.1778 86.2344L60.1708 86.2398C57.8379 88.0395 55.2092 89.4031 52.2923 90.3328C49.4327 91.3286 46.4132 91.824 43.24 91.824C39.0155 91.824 35.0408 91.0312 31.3261 89.4391L31.3161 89.4349L31.3062 89.4304C27.6767 87.7806 24.5016 85.5658 21.7884 82.7865C19.093 80.0253 16.9781 77.0223 15.4548 73.7769L15.0987 73.0183L26.4793 64.9849ZM51.976 89.384C54.792 88.488 57.32 87.176 59.56 85.448C61.8 83.656 63.56 81.48 64.84 78.92C66.12 76.36 66.76 73.448 66.76 70.184C66.76 67.304 66.28 64.776 65.32 62.6C64.424 60.36 63.144 58.44 61.48 56.84C59.88 55.176 58.056 53.768 56.008 52.616C54.024 51.464 51.944 50.504 49.768 49.736C46.376 48.584 43.56 47.464 41.32 46.376C39.08 45.224 37.416 44.04 36.328 42.824C35.24 41.544 34.696 40.072 34.696 38.408C34.696 36.744 35.368 35.304 36.712 34.088C38.056 32.808 40.072 32.168 42.76 32.168C44.808 32.168 46.632 32.584 48.232 33.416C49.832 34.184 51.24 35.24 52.456 36.584C53.736 37.864 54.824 39.304 55.72 40.904L66.472 34.952C65.32 32.584 63.688 30.312 61.576 28.136C59.528 25.896 56.936 24.072 53.8 22.664C50.728 21.192 47.048 20.456 42.76 20.456C38.6 20.456 34.824 21.224 31.432 22.76C28.104 24.232 25.448 26.376 23.464 29.192C21.544 31.944 20.584 35.24 20.584 39.08C20.584 42.28 21.192 45.032 22.408 47.336C23.624 49.576 25.16 51.496 27.016 53.096C28.872 54.632 30.824 55.912 32.872 56.936C34.984 57.896 36.84 58.664 38.44 59.24C41.448 60.392 43.976 61.48 46.024 62.504C48.136 63.464 49.704 64.584 50.728 65.864C51.816 67.144 52.36 68.84 52.36 70.952C52.36 73.384 51.496 75.304 49.768 76.712C48.04 78.12 45.8 78.824 43.048 78.824C40.68 78.824 38.472 78.312 36.424 77.288C34.376 76.264 32.488 74.824 30.76 72.968C29.2921 71.3307 27.9238 69.4443 26.655 67.309C26.4856 67.0238 26.3179 66.7341 26.152 66.44L16.36 73.352C17.832 76.488 19.88 79.4 22.504 82.088C25.128 84.776 28.2 86.92 31.72 88.52C35.304 90.056 39.144 90.824 43.24 90.824C46.312 90.824 49.224 90.344 51.976 89.384Z" fill="#AE2127"/>
<path fill-rule="evenodd" clip-rule="evenodd" d="M67.296 20.8H89.992C95.4069 20.8 100.071 21.68 103.947 23.4842C107.882 25.2853 110.92 27.8735 113.018 31.2571C115.116 34.6409 116.144 38.6385 116.144 43.208C116.144 47.7171 115.114 51.71 113.023 55.1514L113.018 55.159C110.92 58.5425 107.882 61.1307 103.947 62.9318C100.071 64.736 95.4069 65.616 89.992 65.616H83.024V90H67.296V20.8ZM82.024 64.616H89.992C95.304 64.616 99.816 63.752 103.528 62.024C107.304 60.296 110.184 57.832 112.168 54.632C114.152 51.368 115.144 47.56 115.144 43.208C115.144 38.792 114.152 34.984 112.168 31.784C110.184 28.584 107.304 26.12 103.528 24.392C99.816 22.664 95.304 21.8 89.992 21.8H68.296V89H82.024V64.616ZM82.024 33.416V53H89.992C93.64 53 96.52 52.168 98.632 50.504C100.744 48.84 101.8 46.408 101.8 43.208C101.8 39.944 100.744 37.512 98.632 35.912C96.52 34.248 93.64 33.416 89.992 33.416H82.024ZM83.024 52H89.992C93.495 52 96.1312 51.2013 98.0131 49.7185C99.8376 48.281 100.8 46.1667 100.8 43.208C100.8 40.1763 99.8326 38.0761 98.0281 36.7091L98.0206 36.7034L98.0131 36.6975C96.1312 35.2147 93.495 34.416 89.992 34.416H83.024V52Z" fill="#DF8211"/>
<path fill-rule="evenodd" clip-rule="evenodd" d="M159.016 89V77.384H129.544V59.048H157.096V47.624H129.544V33.416H159.016V21.8H116.296V89H159.016ZM115.296 20.8V90H160.016V76.384H130.544V60.048H158.096V46.624H130.544V34.416H160.016V20.8H115.296Z" fill="#EEB51C"/>
<path d="M116 60H130.54V34H116V60Z" fill="#EEB51C"/>
<path fill-rule="evenodd" clip-rule="evenodd" d="M129.54 59H117V35H129.54V59ZM116 60V34H130.54V60H116Z" fill="#EEB51C"/>
<path fill-rule="evenodd" clip-rule="evenodd" d="M214.48 41.7578C213.23 40.4987 211.803 39.3182 210.2 38.216C208.216 36.808 205.976 35.688 203.48 34.856C200.984 34.024 198.136 33.608 194.936 33.608C191.096 33.608 187.544 34.504 184.28 36.296C181.016 38.024 178.36 40.52 176.312 43.784C174.328 47.048 173.336 50.92 173.336 55.4C173.336 59.816 174.328 63.688 176.312 67.016C178.36 70.28 181.016 72.808 184.28 74.6C187.544 76.328 191.096 77.192 194.936 77.192C198.136 77.192 200.984 76.776 203.48 75.944C205.976 75.112 208.216 73.992 210.2 72.584C211.803 71.4818 213.23 70.3013 214.48 69.0422C214.827 68.6929 215.16 68.3374 215.48 67.976V83.432C212.728 85.608 209.72 87.304 206.456 88.52C203.256 89.736 199.192 90.344 194.264 90.344C189.144 90.344 184.376 89.512 179.96 87.848C175.608 86.184 171.8 83.784 168.536 80.648C165.336 77.512 162.84 73.832 161.048 69.608C159.32 65.32 158.456 60.584 158.456 55.4C158.456 50.216 159.32 45.512 161.048 41.288C162.84 37 165.336 33.288 168.536 30.152C171.8 27.016 175.608 24.616 179.96 22.952C184.376 21.288 189.144 20.456 194.264 20.456C199.192 20.456 203.256 21.064 206.456 22.28C209.72 23.496 212.728 25.192 215.48 27.368V42.824C215.16 42.4625 214.827 42.1071 214.48 41.7578ZM206.808 21.3441C203.457 20.0713 199.263 19.456 194.264 19.456C189.034 19.456 184.145 20.3063 179.607 22.0162L179.603 22.0179C175.13 23.7283 171.207 26.1994 167.843 29.4309L167.836 29.4378C164.537 32.6708 161.967 36.4958 160.125 40.9024L160.122 40.9094C158.339 45.2688 157.456 50.1037 157.456 55.4C157.456 60.6966 158.339 65.5614 160.12 69.9818L160.124 69.9902L160.127 69.9986C161.97 74.3409 164.54 78.1317 167.836 81.3622L167.843 81.3691C171.207 84.6006 175.13 87.0717 179.603 88.7821L179.607 88.7838C184.145 90.4937 189.034 91.344 194.264 91.344C199.263 91.344 203.456 90.7289 206.807 89.4563C210.169 88.2036 213.268 86.4562 216.1 84.2164L216.48 83.9161V65.3363L214.731 67.3134C213.319 68.9096 211.622 70.3928 209.633 71.76L209.627 71.7642L209.621 71.7685C207.724 73.1149 205.574 74.192 203.164 74.9953C200.789 75.7869 198.051 76.192 194.936 76.192C191.255 76.192 187.867 75.366 184.755 73.7197C181.651 72.0146 179.124 69.6121 177.165 66.4941C175.29 63.3438 174.336 59.657 174.336 55.4C174.336 51.074 175.292 47.3904 177.163 44.3095C179.121 41.1904 181.648 38.821 184.748 37.1798L184.755 37.1762L184.761 37.1726C187.873 35.4641 191.259 34.608 194.936 34.608C198.051 34.608 200.789 35.0131 203.164 35.8047C205.574 36.608 207.724 37.6851 209.621 39.0315L209.627 39.0358L209.633 39.04C211.622 40.4072 213.319 41.8904 214.731 43.4866L216.48 45.4637V26.8839L216.1 26.5836C213.268 24.3441 210.17 22.5967 206.808 21.3441Z" fill="#0B936A"/>
<path d="M176.296 67.016C174.312 63.688 173.32 59.816 173.32 55.4H158.44C158.44 60.584 159.304 65.32 161.032 69.608C162.824 73.832 165.32 77.512 168.52 80.648C171.784 83.784 175.592 86.184 179.944 87.848C184.36 89.512 189.128 90.344 194.248 90.344C199.176 90.344 203.24 89.736 206.44 88.52C209.704 87.304 212.712 85.608 215.464 83.432V67.976C213.992 69.64 212.232 71.176 210.184 72.584C208.2 73.992 205.96 75.112 203.464 75.944C200.968 76.776 198.12 77.192 194.92 77.192C191.08 77.192 187.528 76.328 184.264 74.6C181 72.808 178.344 70.28 176.296 67.016Z" fill="#0B936A"/>
<path fill-rule="evenodd" clip-rule="evenodd" d="M174.32 54.4V55.4C174.32 59.657 175.274 63.3439 177.149 66.4942C179.108 69.6122 181.636 72.0147 184.739 73.7198C187.851 75.366 191.239 76.192 194.92 76.192C198.035 76.192 200.773 75.7869 203.148 74.9953C205.558 74.192 207.708 73.115 209.605 71.7685L209.611 71.7642L209.617 71.76C211.606 70.3928 213.303 68.9097 214.715 67.3135L216.464 65.3363V83.9162L216.084 84.2164C213.252 86.456 210.154 88.2033 206.792 89.4559C203.441 90.7288 199.247 91.344 194.248 91.344C189.018 91.344 184.129 90.4937 179.591 88.7838L179.587 88.7821C175.114 87.0717 171.191 84.6006 167.827 81.3691L167.82 81.3623C164.524 78.1317 161.954 74.341 160.111 69.9986L160.108 69.9902L160.104 69.9818C158.323 65.5614 157.44 60.6966 157.44 55.4V54.4H174.32ZM206.44 88.52C209.704 87.304 212.712 85.608 215.464 83.432V67.976C215.144 68.3375 214.811 68.6929 214.464 69.0423C213.214 70.3013 211.787 71.4819 210.184 72.584C208.2 73.992 205.96 75.112 203.464 75.944C200.968 76.776 198.12 77.192 194.92 77.192C191.08 77.192 187.528 76.328 184.264 74.6C181 72.808 178.344 70.28 176.296 67.016C174.312 63.688 173.32 59.816 173.32 55.4H158.44C158.44 55.7352 158.444 56.0686 158.451 56.4C158.555 61.1946 159.416 65.5973 161.032 69.608C162.824 73.832 165.32 77.512 168.52 80.648C171.784 83.784 175.592 86.184 179.944 87.848C184.36 89.512 189.128 90.344 194.248 90.344C199.176 90.344 203.24 89.736 206.44 88.52Z" fill="#0B936A"/>
<path fill-rule="evenodd" clip-rule="evenodd" d="M215.576 35.184V20.8H267.496V35.184H249.352V90H233.624V35.184H215.576ZM234.624 34.184V89H248.352V34.184H266.496V21.8H216.576V34.184H234.624Z" fill="#1975B3"/>
<path d="M248.348 88.996V34.18H234.62V88.996H248.348Z" fill="#1975B3"/>
<path d="M68 89H83V52H68V89Z" fill="#DF8211"/>
<path fill-rule="evenodd" clip-rule="evenodd" d="M82 88H69V53H82V88ZM68 89V52H83V89H68Z" fill="#DF8211"/>
<path fill-rule="evenodd" clip-rule="evenodd" d="M302.734 62.6481C302.415 62.7722 302.091 62.8903 301.762 63.0026L319.944 89H303.72L288.013 64.616H282.024V89H268.296V21.8H290.856C296.168 21.8 300.68 22.696 304.392 24.488C308.104 26.28 310.952 28.776 312.936 31.976C314.92 35.176 315.912 38.92 315.912 43.208C315.912 47.432 314.92 51.176 312.936 54.44C310.952 57.64 308.104 60.136 304.392 61.928C303.856 62.1867 303.303 62.4268 302.734 62.6481ZM303.323 63.4907C303.837 63.2851 304.338 63.0644 304.827 62.8286C308.693 60.9621 311.692 58.3436 313.786 54.967L313.791 54.9594C315.88 51.5226 316.912 47.5952 316.912 43.208C316.912 38.7603 315.881 34.8284 313.786 31.4491C311.692 28.0724 308.693 25.4539 304.827 23.5874C300.946 21.7139 296.277 20.8 290.856 20.8H267.296V90H283.024V65.616H287.467L303.175 90H321.864L303.323 63.4907ZM282.024 33.512V53.672H289.992C292.424 53.672 294.504 53.288 296.232 52.52C298.024 51.688 299.4 50.536 300.36 49.064C301.32 47.528 301.8 45.704 301.8 43.592C301.8 41.48 301.32 39.688 300.36 38.216C299.4 36.68 298.024 35.528 296.232 34.76C294.504 33.928 292.424 33.512 289.992 33.512H282.024ZM283.024 34.512H289.992C292.313 34.512 294.237 34.9092 295.798 35.661L295.818 35.6705L295.838 35.6791C297.458 36.3732 298.668 37.3964 299.512 38.746L299.517 38.7542L299.522 38.7623C300.357 40.0415 300.8 41.6344 300.8 43.592C300.8 45.5443 300.359 47.1752 299.517 48.5258C298.673 49.8162 297.455 50.8482 295.818 51.6095C294.251 52.3047 292.319 52.672 289.992 52.672H283.024V34.512Z" fill="#253A7E"/>
<path d="M268.3 21.8H282.028V43.592H268.3V21.8ZM276.652 33.512V21.8H290.86C296.172 21.8 300.684 22.696 304.396 24.488C308.108 26.28 310.956 28.776 312.94 31.976C314.924 35.176 315.916 38.92 315.916 43.208V43.592H301.804C301.804 41.48 301.324 39.688 300.364 38.216C299.404 36.68 298.028 35.528 296.236 34.76C294.508 33.928 292.428 33.512 289.996 33.512H276.652Z" fill="#253A7E"/>
<path fill-rule="evenodd" clip-rule="evenodd" d="M267.3 20.8H290.86C296.281 20.8 300.95 21.7139 304.831 23.5874C308.697 25.4539 311.696 28.0724 313.79 31.449C315.885 34.8284 316.916 38.7603 316.916 43.208V44.592H300.804V43.592C300.804 41.6344 300.361 40.0415 299.526 38.7623L299.521 38.7542L299.516 38.746C298.672 37.3964 297.462 36.3732 295.842 35.6791L295.822 35.6705L295.802 35.661C294.241 34.9092 292.317 34.512 289.996 34.512H283.028V44.592H267.3V20.8ZM282.028 33.512H289.996C292.428 33.512 294.508 33.928 296.236 34.76C298.028 35.528 299.404 36.68 300.364 38.216C301.324 39.688 301.804 41.48 301.804 43.592H315.916V43.208C315.916 43.0014 315.914 42.7961 315.909 42.592C315.818 38.5605 314.828 35.0218 312.94 31.976C310.956 28.776 308.108 26.28 304.396 24.488C300.684 22.696 296.172 21.8 290.86 21.8H268.3V43.592H282.028V33.512Z" fill="#253A7E"/>
<path fill-rule="evenodd" clip-rule="evenodd" d="M316 20H331.728V65.256C331.728 68.9136 332.668 71.7683 334.461 73.9145C336.268 75.9404 338.965 77.024 342.728 77.024C346.5 77.024 349.158 75.936 350.898 73.9155L350.9 73.9139C352.757 71.7662 353.728 68.9124 353.728 65.256V20H369.456V66.12C369.456 70.1945 368.799 73.8203 367.456 76.9756C366.12 80.1153 364.209 82.7685 361.723 84.9199C359.313 87.0614 356.475 88.6609 353.223 89.7238C349.974 90.8498 346.473 91.408 342.728 91.408C338.921 91.408 335.388 90.8504 332.137 89.7238C328.883 88.6602 326.043 87.0592 323.632 84.9154C321.21 82.7633 319.334 80.1112 318 76.9756C316.657 73.8203 316 70.1945 316 66.12V20ZM332.456 88.776C335.592 89.864 339.016 90.408 342.728 90.408C346.376 90.408 349.768 89.864 352.904 88.776C356.04 87.752 358.76 86.216 361.064 84.168C363.432 82.12 365.256 79.592 366.536 76.584C367.816 73.576 368.456 70.088 368.456 66.12V21H354.728V65.256C354.728 69.096 353.704 72.2 351.656 74.568C349.672 76.872 346.696 78.024 342.728 78.024C338.76 78.024 335.752 76.872 333.704 74.568C331.72 72.2 330.728 69.096 330.728 65.256V21H317V66.12C317 70.088 317.64 73.576 318.92 76.584C320.2 79.592 321.992 82.12 324.296 84.168C326.6 86.216 329.32 87.752 332.456 88.776Z" fill="#672380"/>
<path d="M343.184 90.608L343.184 78.224C347.152 78.224 350.128 77.072 352.112 74.768C354.16 72.4 355.184 69.296 355.184 65.456V21.2H368.912V66.32C368.912 70.288 368.272 73.776 366.992 76.784C365.712 79.792 363.888 82.32 361.52 84.368C359.216 86.416 356.496 87.952 353.36 88.976C350.224 90.064 346.832 90.608 343.184 90.608Z" fill="#672380"/>
<path fill-rule="evenodd" clip-rule="evenodd" d="M354.684 20.7H369.412V66.32C369.412 70.3413 368.763 73.8982 367.452 76.9798C366.144 80.0537 364.277 82.6443 361.85 84.744C359.492 86.8387 356.713 88.4064 353.52 89.4499C350.327 90.5569 346.881 91.108 343.184 91.108H342.684L342.684 77.724H343.184C347.054 77.724 349.871 76.604 351.733 74.4418L351.734 74.4409C353.687 72.1831 354.684 69.2042 354.684 65.456V20.7ZM355.684 21.7V65.456C355.684 69.3878 354.633 72.6169 352.49 75.0951C350.471 77.4391 347.507 78.6239 343.684 78.7179L343.684 90.1045C347.091 90.057 350.261 89.522 353.196 88.5036L353.205 88.5006C356.28 87.4965 358.939 85.9935 361.188 83.9943L361.193 83.9898C363.501 81.9939 365.28 79.5293 366.532 76.5882C367.781 73.6539 368.412 70.2348 368.412 66.32V21.7H355.684Z" fill="#672380"/>
<path fill-rule="evenodd" clip-rule="evenodd" d="M386.08 51.272L381.76 89H367.456L377.44 18.44L405.568 61.832L433.696 18.44L443.68 89H429.376L425.056 51.272L405.568 82.76L386.08 51.272ZM424.39 54.2479L405.568 84.6602L386.746 54.2479L382.652 90H366.305L376.825 15.6521L405.568 59.9936L434.311 15.6521L444.831 90H428.484L424.39 54.2479Z" fill="#AE2127"/>
<path d="M386.084 51.272L381.764 89H367.46L377.444 18.44L405.572 61.832V82.76L386.084 51.272Z" fill="#AE2127"/>
<path d="M116 34.4H159.5V20.9H116V34.4Z" fill="#EEB51C"/>
<path fill-rule="evenodd" clip-rule="evenodd" d="M158.5 33.4H117V21.9H158.5V33.4ZM116 34.4V20.9H159.5V34.4H116Z" fill="#EEB51C"/>
</svg>
