<svg width="853" height="250" viewBox="0 0 853 250" fill="none" xmlns="http://www.w3.org/2000/svg">
<path fill-rule="evenodd" clip-rule="evenodd" d="M794.955 99.6927C796.965 104.546 798 109.747 798 115V175H773V115C773 113.03 772.612 111.08 771.858 109.26C771.104 107.44 769.999 105.786 768.607 104.393C767.214 103.001 765.56 101.896 763.74 101.142C761.92 100.388 759.97 100 758 100C756.03 100 754.08 100.388 752.26 101.142C750.44 101.896 748.786 103.001 747.393 104.393C746.001 105.786 744.896 107.44 744.142 109.26C743.388 111.08 743 113.03 743 115V175H718V115C718 109.747 719.035 104.546 721.045 99.6927C723.055 94.8396 726.001 90.4301 729.716 86.7157C733.43 83.0014 737.84 80.055 742.693 78.0448C747.546 76.0346 752.747 75 758 75C763.253 75 768.454 76.0346 773.307 78.0448C778.16 80.055 782.57 83.0014 786.284 86.7157C789.999 90.4301 792.945 94.8396 794.955 99.6927Z" fill="#AE2127" fill-opacity="0.8"/>
<path fill-rule="evenodd" clip-rule="evenodd" d="M849.955 99.6927C851.965 104.546 853 109.747 853 115V175H828V115C828 113.03 827.612 111.08 826.858 109.26C826.104 107.44 824.999 105.786 823.607 104.393C822.214 103.001 820.56 101.896 818.74 101.142C816.92 100.388 814.97 100 813 100C811.03 100 809.08 100.388 807.26 101.142C805.44 101.896 803.786 103.001 802.393 104.393C801.001 105.786 799.896 107.44 799.142 109.26C798.388 111.08 798 113.03 798 115V175H773V115C773 109.747 774.035 104.546 776.045 99.6927C778.055 94.8396 781.001 90.4301 784.716 86.7157C788.43 83.0014 792.84 80.055 797.693 78.0448C802.546 76.0346 807.747 75 813 75C818.253 75 823.454 76.0346 828.307 78.0448C833.16 80.055 837.57 83.0014 841.284 86.7157C844.999 90.4301 847.945 94.8396 849.955 99.6927Z" fill="#1975B3" fill-opacity="0.8"/>
<path fill-rule="evenodd" clip-rule="evenodd" d="M618 77H643V137C643 138.97 643.388 140.92 644.142 142.74C644.896 144.56 646.001 146.214 647.393 147.607C648.786 148.999 650.44 150.104 652.26 150.858C654.08 151.612 656.03 152 658 152C659.97 152 661.92 151.612 663.74 150.858C665.56 150.104 667.214 148.999 668.607 147.607C669.999 146.214 671.104 144.56 671.858 142.74C672.612 140.92 673 138.97 673 137V77H698V137C698 142.253 696.965 147.454 694.955 152.307C692.945 157.16 689.999 161.57 686.284 165.284C682.57 168.999 678.16 171.945 673.307 173.955C668.454 175.965 663.253 177 658 177C652.747 177 647.546 175.965 642.693 173.955C637.84 171.945 633.43 168.999 629.716 165.284C626.001 161.57 623.055 157.16 621.045 152.307C619.035 147.454 618 142.253 618 137V77Z" fill="#672380" fill-opacity="0.8"/>
<rect x="673" y="77" width="25" height="100" fill="#0B936A" fill-opacity="0.8"/>
<rect x="538" y="77" width="25" height="100" fill="#253A7E" fill-opacity="0.8"/>
<path fill-rule="evenodd" clip-rule="evenodd" d="M543.894 96.1001C540.04 102.39 538 109.623 538 117V177H563V117C563 114.234 563.765 111.521 565.21 109.163C566.656 106.804 568.725 104.891 571.19 103.635C573.655 102.379 576.419 101.829 579.177 102.046C581.935 102.263 584.579 103.239 586.817 104.865L601.511 84.6393C595.543 80.3033 588.493 77.7021 581.138 77.1233C573.784 76.5445 566.413 78.0107 559.84 81.3598C553.268 84.7088 547.749 89.8102 543.894 96.1001Z" fill="#EEB51C" fill-opacity="0.8"/>
<path fill-rule="evenodd" clip-rule="evenodd" d="M500 0H475V150C475 163.807 486.193 175 500 175H512.5V150H500V0Z" fill="#1975B3" fill-opacity="0.8"/>
<rect x="467" y="77" width="46" height="25" fill="#DF8211" fill-opacity="0.8"/>
<path d="M445.355 160.355C438.363 167.348 429.454 172.11 419.755 174.039C410.055 175.969 400.002 174.978 390.866 171.194C381.73 167.41 373.921 161.001 368.427 152.779C362.932 144.556 360 134.889 360 125C360 115.111 362.932 105.444 368.427 97.2215C373.921 88.999 381.73 82.5904 390.866 78.806C400.002 75.0216 410.055 74.0315 419.755 75.9607C429.454 77.89 438.363 82.652 445.355 89.6447L427.678 107.322C424.181 103.826 419.727 101.445 414.877 100.48C410.028 99.5157 405.001 100.011 400.433 101.903C395.865 103.795 391.96 107 389.213 111.111C386.466 115.222 385 120.055 385 125C385 129.945 386.466 134.778 389.213 138.889C391.96 143 395.865 146.205 400.433 148.097C405.001 149.989 410.028 150.484 414.877 149.52C419.727 148.555 424.181 146.174 427.678 142.678L445.355 160.355Z" fill="#0B936A" fill-opacity="0.8"/>
<path d="M335.315 146.131C330.427 156.615 322.054 165.079 311.624 170.082C301.194 175.085 289.352 176.317 278.116 173.567C266.879 170.818 256.944 164.257 250.003 155.004C243.061 145.75 239.543 134.376 240.048 122.819C240.552 111.262 245.048 100.238 252.77 91.6246C260.491 83.0112 270.961 77.3417 282.394 75.5819C293.827 73.8222 305.517 76.0812 315.471 81.974C325.425 87.8668 333.028 97.0288 336.985 107.899L313.492 116.449C311.514 111.014 307.713 106.433 302.735 103.487C297.758 100.541 291.913 99.4111 286.197 100.291C280.48 101.171 275.246 104.006 271.385 108.312C267.524 112.619 265.276 118.131 265.024 123.91C264.772 129.688 266.531 135.375 270.001 140.002C273.472 144.629 278.44 147.909 284.058 149.284C289.676 150.658 295.597 150.043 300.812 147.541C306.027 145.04 310.213 140.807 312.658 135.565L335.315 146.131Z" fill="#EEB51C" fill-opacity="0.8"/>
<path fill-rule="evenodd" clip-rule="evenodd" d="M337.006 107.906L243.011 142.118C241.307 137.442 240.28 132.441 240.05 127.233L329.708 94.6C332.776 98.6019 335.252 103.081 337.006 107.906Z" fill="#672380" fill-opacity="0.8"/>
<rect x="120" y="75" width="25" height="175" fill="#DF8211" fill-opacity="0.8"/>
<path d="M220 125C220 152.614 197.614 175 170 175C142.386 175 120 152.614 120 125C120 97.3858 142.386 75 170 75C197.614 75 220 97.3858 220 125ZM145 125C145 138.807 156.193 150 170 150C183.807 150 195 138.807 195 125C195 111.193 183.807 100 170 100C156.193 100 145 111.193 145 125Z" fill="#1975B3" fill-opacity="0.8"/>
<path fill-rule="evenodd" clip-rule="evenodd" d="M82.4724 11.9797C89.4842 17.9684 94.7034 25.7794 97.5528 34.5492L73.7764 42.2746C72.3517 37.8897 69.7421 33.9842 66.2362 30.9899C62.7303 27.9956 58.4647 26.0291 53.9109 25.3078C49.3571 24.5866 44.6925 25.1386 40.4329 26.903C36.1733 28.6674 32.4846 31.5754 29.7746 35.3054C27.0646 39.0354 25.4388 43.4422 25.0771 48.0385C24.7153 52.6349 25.6317 57.2417 27.7249 61.3498C29.818 65.4578 33.0064 68.907 36.9376 71.316C40.8687 73.725 45.3895 75 50 75C59.2211 75 68.2627 77.55 76.1249 82.368C83.9872 87.186 90.364 94.0844 94.5503 102.3C98.7366 110.517 100.569 119.73 99.8459 128.923C99.1224 138.116 95.8709 146.929 90.4509 154.389C85.0308 161.849 77.6534 167.665 69.1342 171.194C60.615 174.723 51.2859 175.827 42.1783 174.384C33.0707 172.942 24.5394 169.009 17.5276 163.02C10.5158 157.032 5.29668 149.221 2.4472 140.451L26.2236 132.725C27.6483 137.11 30.2579 141.016 33.7638 144.01C37.2697 147.004 41.5354 148.971 46.0892 149.692C50.643 150.413 55.3075 149.861 59.5671 148.097C63.8267 146.333 67.5154 143.425 70.2254 139.695C72.9355 135.965 74.5612 131.558 74.923 126.962C75.2847 122.365 74.3683 117.758 72.2752 113.65C70.182 109.542 66.9936 106.093 63.0625 103.684C59.1313 101.275 54.6106 100 50 100C40.7789 100 31.7374 97.4501 23.8751 92.632C16.0128 87.814 9.63599 80.9156 5.44969 72.6995C1.26339 64.4835 -0.569327 55.2698 0.154154 46.0771C0.877636 36.8844 4.12914 28.0708 9.54917 20.6108C14.9692 13.1507 22.3467 7.33481 30.8659 3.80604C39.3851 0.277274 48.7142 -0.826897 57.8217 0.615604C66.9293 2.05811 75.4606 5.99109 82.4724 11.9797Z" fill="#AE2127" fill-opacity="0.8"/>
</svg>
